# xmcd
#
# Track frame offsets:
#	150
#	12150
#	27825
#	43200
#	58725
#	78225
#	93225
#	107475
#	122625
#	139275
#	152850
#	164850
#	180525
#	195900
#	211425
#	230925
#	245925
#	260175
#	275325
#	291975
#
# Disc length: 4074 seconds
#
# Revision: 0
# Processed by: cddbd v1.5.1PL2 Copyright (c) Steve Scherf et al.
# Submitted via: audiograbber 1.83.01
#
DISCID=2f0fe814
DTITLE=Top Hits Monthly Country  - Thmc9705F
DYEAR=1997
DGENRE=Karaoke
TTITLE0=Mindy McCready - A Girl's Gotta Do (Vocal)
TTITLE1=Leann Rimes - The Light In Your Eyes (Vocal)
TTITLE2=Tanya Tucker - Little Things (Vocal)
TTITLE3=Deana Carter - Count Me In (Vocal)
TTITLE4=Patty Loveless - The Trouble (Vocal)
TTITLE5=Lee Ann Womak - Never Again, Again (Vocal)
TTITLE6=Alison Krauss - Find My Way Back (Vocal)
TTITLE7=Pam Tillis - All The Good Ones (Vocal)
TTITLE8=Mandy Barnett - Planet Of Love (Vocal)
TTITLE9=Tammy Graham - A Dozen Red Roses (Vocal)
TTITLE10=Mindy McCready - A Girl's Gotta Do
TTITLE11=Leann Rimes - The Light In Your Eyes
TTITLE12=Tanya Tucker - Little Things
TTITLE13=Deana Carter - Count Me In
TTITLE14=Patty Loveless - The Trouble
TTITLE15=Lee Ann Womak - Never Again, Again
TTITLE16=Alison Krauss - Find My Way Back
TTITLE17=Pam Tillis - All The Good Ones
TTITLE18=Mandy Barnett - Planet Of Love
TTITLE19=Tammy Graham - A Dozen Red Roses
EXTD=
EXTT0=
EXTT1=
EXTT2=
EXTT3=
EXTT4=
EXTT5=
EXTT6=
EXTT7=
EXTT8=
EXTT9=
EXTT10=
EXTT11=
EXTT12=
EXTT13=
EXTT14=
EXTT15=
EXTT16=
EXTT17=
EXTT18=
EXTT19=
PLAYORDER=
